<svg width="110" height="95" viewBox="0 0 110 95" fill="none" xmlns="http://www.w3.org/2000/svg">
<rect width="110" height="95" fill="#E5E5E5"/>
<rect x="2.5" y="2.5" width="105" height="90" fill="#3BC800" stroke="#2B8E00" stroke-width="5"/>
<g filter="url(#filter0_d)">
<path d="M8.85 74V70.85H9.825C11.475 70.85 12.9 70.575 14.1 70.025C15.35 69.425 15.975 68.025 15.975 65.825V29C15.975 26.65 15.375 25.175 14.175 24.575C12.975 23.925 11.525 23.6 9.825 23.6H8.85V20.45H46.65L47.025 33.575H43.125L42.75 30.35C42.55 28.7 41.95 27.275 40.95 26.075C40 24.825 38.4 24.2 36.15 24.2H23.55V44.15H41.625V47.825H23.55V70.25H38.025C40.375 70.25 42.075 69.65 43.125 68.45C44.225 67.2 44.9 65.75 45.15 64.1L45.675 60.875H49.575L49.05 74H8.85ZM53.3285 74V70.85H53.7785C55.5785 70.85 56.9785 70.475 57.9785 69.725C59.0285 68.925 60.2285 67.55 61.5785 65.6L74.1035 47.675L61.7285 27.575C60.8285 26.125 59.8035 25.1 58.6535 24.5C57.5535 23.9 56.4285 23.6 55.2785 23.6H54.3035V20.45H74.6285V23.6H74.4035C72.7035 23.6 71.5535 23.825 70.9535 24.275C70.4035 24.675 70.1285 25.175 70.1285 25.775C70.1285 26.275 70.2285 26.825 70.4285 27.425C70.6285 27.975 71.1285 28.9 71.9285 30.2L78.6785 41.15L85.8035 30.35C86.3535 29.5 86.8035 28.7 87.1535 27.95C87.5035 27.15 87.6785 26.425 87.6785 25.775C87.6785 24.875 87.2785 24.3 86.4785 24.05C85.7285 23.75 84.7785 23.6 83.6285 23.6H83.4035V20.45H99.8285V23.6H99.1535C97.7035 23.6 96.4535 24 95.4035 24.8C94.4035 25.55 93.1785 26.95 91.7285 29L80.8535 44.675L94.6535 66.875C95.7535 68.325 96.7785 69.35 97.7285 69.95C98.7285 70.55 99.7035 70.85 100.654 70.85H101.629V74H81.3785V70.85H81.7535C84.7535 70.85 86.2535 70.025 86.2535 68.375C86.2535 67.825 86.1035 67.25 85.8035 66.65C85.5035 66 84.8285 64.85 83.7785 63.2L76.3535 51.275L68.0285 63.575C67.6285 64.225 67.2035 65.025 66.7535 65.975C66.3035 66.875 66.0785 67.725 66.0785 68.525C66.0785 70.075 67.7035 70.85 70.9535 70.85H71.1785V74H53.3285Z" fill="white"/>
</g>
<defs>
<filter id="filter0_d" x="8.85001" y="20.45" width="94.7785" height="55.55" filterUnits="userSpaceOnUse" color-interpolation-filters="sRGB">
<feFlood flood-opacity="0" result="BackgroundImageFix"/>
<feColorMatrix in="SourceAlpha" type="matrix" values="0 0 0 0 0 0 0 0 0 0 0 0 0 0 0 0 0 0 127 0"/>
<feOffset dx="2" dy="2"/>
<feColorMatrix type="matrix" values="0 0 0 0 0 0 0 0 0 0 0 0 0 0 0 0 0 0 0.5 0"/>
<feBlend mode="normal" in2="BackgroundImageFix" result="effect1_dropShadow"/>
<feBlend mode="normal" in="SourceGraphic" in2="effect1_dropShadow" result="shape"/>
</filter>
</defs>
</svg>
